<svg xmlns="http://www.w3.org/2000/svg" viewBox="0 0 512 512" id="user"><path fill="#231f20" d="M436.56,75.46a255.16,255.16,0,0,0-361.27,0C-23.35,174.1-24.3,334,72.43,433.82l1.86,1.89.16.16,0,0,0,0,.8.81,1.87,1.87a255.22,255.22,0,0,0,73,50.12l2.59,1.16h0c1.84.81,3.7,1.61,5.56,2.38l3,1.21,3,1.18q3.21,1.24,6.47,2.38l.06,0q3.46,1.23,7,2.34l3.63,1.13q5.07,1.55,10.22,2.87l3.44.86c1.84.46,3.68.88,5.53,1.28s3.71.8,5.57,1.16q3.5.69,7,1.27c1.17.2,2.34.39,3.52.57s2.35.35,3.53.51l2.84.38c.9.12,1.8.23,2.71.33l.25,0,2.78.31,2.8.28,2.86.25c1.91.16,3.82.29,5.74.41l3.54.19h.34c1.15.05,2.31.1,3.47.13h.17l.79,0c.69,0,1.37,0,2.06.05h.49c1.6,0,3.21.05,4.82.05h.1q6.25,0,12.46-.31c1.94-.09,3.87-.21,5.8-.34l.55,0c1-.08,2-.15,3-.24l3.09-.28q3.09-.3,6.17-.67c2.05-.25,4.09-.53,6.13-.82s4.08-.62,6.1-1c1-.17,2-.35,3-.54s2-.38,3-.57l3-.61,3.24-.7,2.49-.57c.24-.05.49-.1.73-.17l.11,0c.81-.18,1.62-.38,2.42-.58,1-.24,2-.49,3-.75l3-.79q3-.81,5.89-1.68c1-.29,2-.59,2.93-.9s1.95-.61,2.92-.93,1.94-.63,2.91-1q2.89-1,5.77-2l2.87-1.07c1-.36,1.9-.73,2.85-1.1,1.9-.75,3.78-1.52,5.67-2.31,1.41-.59,2.81-1.2,4.21-1.82s2.78-1.25,4.17-1.9l2.51-1.18c.79-.37,1.57-.75,2.35-1.14q2.25-1.11,4.49-2.26h0a256.74,256.74,0,0,0,61.43-44.45l.47-.38h0c.68-.56,1.26-1.14,1.77-1.65.87-.87,1.74-1.75,2.59-2.63l.12-.11.33-.35a255.15,255.15,0,0,0-3-358.18ZM169.47,109.05a122.38,122.38,0,1,1-35.84,86.53A121.54,121.54,0,0,1,169.47,109.05ZM92.71,432.61c.7-.82,1.41-1.64,2.12-2.45L95,430s0,0,.05-.05c.25-.29.51-.59.77-.87l1.57-1.74c.53-.58,1.06-1.16,1.6-1.73l.26-.28.08-.09c.53-.58,1.06-1.14,1.6-1.7.81-.85,1.63-1.7,2.46-2.53l0,0c.51-.52,1-1,1.55-1.54s.93-.94,1.4-1.38l.58-.57c.51-.49,1-1,1.53-1.45l.21-.2.07-.07,0,0,.31-.29c.56-.54,1.12-1.06,1.69-1.57l0,0c.35-.33.7-.66,1.06-1l.22-.19c.53-.5,1.08-1,1.62-1.46l1.23-1.08c.56-.5,1.13-1,1.7-1.46l1.44-1.23c.49-.42,1-.84,1.5-1.25s1.12-.92,1.69-1.37c.42-.35.84-.69,1.27-1l.18-.14.25-.2c.48-.39,1-.77,1.46-1.15l.11-.08q.58-.47,1.17-.9l.2-.16,1.15-.87.06,0,.12-.09c.72-.55,1.44-1.09,2.17-1.61.19-.15.39-.3.59-.43.75-.56,1.5-1.1,2.26-1.63l1.3-.91.17-.11,1.66-1.15.19-.14.24-.16.48-.31c.83-.57,1.66-1.12,2.5-1.67s1.61-1.05,2.43-1.56c.55-.35,1.1-.7,1.66-1l.3-.19,2.46-1.51c1-.62,2.08-1.24,3.13-1.84h0l.36-.21.06,0c.59-.35,1.19-.68,1.79-1l.39-.21.35-.2c.46-.26.92-.52,1.39-.77l0,0c.7-.39,1.4-.77,2.11-1.14l1-.51.14-.07.5-.26.32-.17c.76-.41,1.54-.79,2.3-1.19l2.71-1.34,1.39-.68.09,0,.25-.12.36-.17c.8-.39,1.61-.76,2.42-1.13l.54-.25c1-.47,2.06-.93,3.1-1.38l.67-.3,2.48-1.06.08,0,2.85-1.16a6.09,6.09,0,0,1,.59-.24l.06,0,1.24-.48,1.3-.5,1.14-.44c1-.36,1.94-.72,2.91-1.06q.33-.14.66-.24c.85-.31,1.71-.61,2.57-.89.5-.18,1-.35,1.51-.51.78-.27,1.57-.53,2.36-.77l1-.32.25-.08.17-.05c1-.29,1.9-.59,2.86-.87l59.4,80.89,62.94-80.81,1.23.37c.82.24,1.63.5,2.44.75l1.08.34,2,.65.6.2,2.38.82.09,0,1.54.54,1.24.46c.81.29,1.61.59,2.42.9,1.09.41,2.17.83,3.25,1.26l0,0,.48.19.49.2,1,.4.29.12.16.07.26.1c.55.21,1.11.45,1.65.69.85.35,1.67.72,2.51,1.09l.25.11.43.19.75.33.74.34,0,0c.13.06.27.11.4.18l1.57.72.31.15c.27.12.54.24.81.38h0l.05,0c.86.41,1.74.82,2.59,1.25l.92.46.23.11c.71.35,1.42.7,2.12,1.07l.38.2.07,0a3.47,3.47,0,0,1,.38.2l.38.2.32.16,2.31,1.22.83.45q1.36.73,2.7,1.5a4.63,4.63,0,0,1,.43.24c1,.57,2,1.15,3,1.73.19.1.37.22.56.33l2.33,1.4c.56.34,1.12.68,1.68,1l.21.13,1.34.84.14.09.09,0,.63.4.43.28c.84.53,1.69,1.08,2.52,1.64q.36.23.72.48,1,.67,2,1.38l.1.07q.78.53,1.56,1.08l0,0c.44.3.89.61,1.33.94s1.05.74,1.57,1.12,1.32,1,2,1.44l.26.2,1.19.89c.9.67,1.8,1.36,2.69,2.06.72.55,1.43,1.11,2.14,1.68l1.17.94,2.05,1.69c.28.22.56.45.83.69l0,0c.6.5,1.2,1,1.79,1.53h0l.16.14.05,0,.07.06.69.59c.39.33.77.68,1.16,1l.32.29c.69.59,1.38,1.21,2.06,1.83q2.48,2.23,4.87,4.57.8.77,1.59,1.56c.65.63,1.29,1.27,1.93,1.92q2.72,2.74,5.33,5.6c.11.12.22.23.32.35.55.6,1.1,1.2,1.64,1.81l.06.06.57.65c.86,1,1.7,1.94,2.54,2.92C327.88,517.09,184.2,517.17,92.71,432.61Z"></path><path fill="#fff" d="M316.78,365.9l.57.17-62.94,80.81L195,366c.47-.15.95-.29,1.43-.42l1.44-.41c1.1-.31,2.19-.61,3.29-.9l1.57-.41h0l.21-.05,1.73-.44,1.73-.42.51-.12,1.53-.36,1.52-.34.69-.16.21,0,1.41-.3,1.42-.29q.75-.17,1.5-.3c.73-.15,1.47-.29,2.2-.42l1.23-.23L221,360h0l1.78-.29,1.78-.28,1.3-.19,1.31-.18.24,0,.21,0,.25,0,1.81-.23.14,0,.24,0,.25,0c.72-.09,1.43-.18,2.15-.25s1.48-.17,2.22-.24L236,358c.88-.09,1.76-.16,2.64-.24l2.73-.2,2.17-.14.29,0,.46,0,2.53-.13h0l.6,0h.15l2.21-.08,1.23,0,1.6,0,2.36,0h1.11c1.14,0,2.29,0,3.43,0l.93,0c.4,0,.79,0,1.19,0,.84,0,1.68,0,2.52.08h.33c.74,0,1.49.05,2.23.09h.07l2.17.13,1.06.06c.65,0,1.29.08,1.94.14h.19c.63,0,1.27.09,1.9.15h.09c.93.07,1.85.16,2.77.25l.38,0,1,.1,1.39.15.39,0,2.21.25.23,0,.4.05.92.12,2.2.3,1.51.22.38.06,1.79.28,3,.5c1,.17,1.91.34,2.86.53,1.24.24,2.49.48,3.73.74s2.47.53,3.71.81l3.25.77,1.08.27.41.1,1.75.46c1.42.37,2.84.76,4.25,1.16C314.8,365.33,315.79,365.6,316.78,365.9Z"></path><path fill="#231f20" d="M439.59,433.64l-4.21-5.28a229.66,229.66,0,0,0-117.52-77.75,223.58,223.58,0,0,0-61.76-8.56h-.73a227.56,227.56,0,0,0-58,7.7q-5.91,1.56-11.72,3.43a230.52,230.52,0,0,0-109,75.37l-4.19,5.26,0,0,1.89,1.85.16.16,0,0,0,0,2.75,2.68a255.94,255.94,0,0,0,72.89,50.12l2.59,1.16h0c1.84.81,3.7,1.61,5.56,2.38l3,1.21,3,1.18c2.15.82,4.3,1.62,6.47,2.38l.06,0c2.32.81,4.64,1.59,7,2.34l3.63,1.13q5.07,1.53,10.22,2.87l3.44.86q2.76.66,5.53,1.28t5.57,1.16q3.5.69,7,1.27c1.17.2,2.34.39,3.52.57s2.35.35,3.53.51l2.84.38c.9.12,1.8.23,2.71.33l.25,0,2.78.31,2.8.28,2.86.25c1.91.16,3.82.29,5.74.41l3.54.19h.34c1.15.05,2.31.1,3.47.13h.17l.79,0c.69,0,1.37,0,2.06.05h.49c1.6,0,3.21.05,4.82.05h.1q6.25,0,12.46-.31c1.94-.08,3.87-.2,5.8-.34l.55,0c1-.08,2-.15,3-.24l3.09-.28c2.06-.19,4.12-.42,6.17-.67s4.09-.53,6.13-.82,4.08-.62,6.1-1c1-.17,2-.35,3-.54s2-.38,3-.57l3-.61,3.24-.7,2.49-.57c.24-.05.49-.1.73-.17l.11,0c.81-.18,1.62-.38,2.42-.58,1-.24,2-.49,3-.75l3-.79q3-.78,5.89-1.68c1-.29,2-.59,2.93-.9s1.95-.61,2.92-.93,1.94-.63,2.91-1c1.93-.64,3.86-1.32,5.77-2l2.87-1.07c1-.36,1.9-.73,2.85-1.1,1.9-.75,3.78-1.52,5.67-2.31,1.41-.59,2.81-1.2,4.21-1.82s2.78-1.25,4.17-1.9l2.51-1.18c.79-.37,1.57-.75,2.35-1.14q2.25-1.11,4.49-2.26h0a255.35,255.35,0,0,0,61.9-44.83h0l4.36-4.28.12-.11.34-.34Zm-346.88-1c.7-.82,1.41-1.64,2.12-2.45L95,430s0,0,.05-.05c.25-.29.51-.59.77-.87l1.57-1.74c.53-.58,1.06-1.16,1.6-1.73l.26-.28.08-.09c.53-.58,1.06-1.14,1.6-1.7.81-.85,1.63-1.7,2.46-2.53l0,0c.51-.52,1-1,1.55-1.54s.93-.94,1.4-1.38l.58-.57c.51-.49,1-1,1.53-1.45l.21-.2.07-.07,0,0,.31-.29c.56-.54,1.12-1.06,1.69-1.57l0,0c.35-.33.7-.66,1.06-1l.22-.19c.53-.5,1.08-1,1.62-1.46l1.23-1.08c.56-.5,1.13-1,1.7-1.46l1.44-1.23c.49-.42,1-.84,1.5-1.25s1.12-.92,1.69-1.37c.42-.35.84-.69,1.27-1l.18-.14.25-.2c.48-.39,1-.77,1.46-1.15l.11-.08q.58-.47,1.17-.9l.2-.16,1.15-.87.06,0,.12-.09c.72-.55,1.44-1.09,2.17-1.61.19-.15.39-.3.59-.43.75-.56,1.5-1.1,2.26-1.63l1.3-.91.17-.11,1.66-1.15.19-.14.24-.16.48-.31c.83-.57,1.66-1.12,2.5-1.67s1.61-1.05,2.43-1.56c.55-.35,1.1-.7,1.66-1l.3-.19,2.46-1.51c1-.62,2.08-1.24,3.13-1.84h0l.36-.21.06,0c.59-.35,1.19-.68,1.79-1l.39-.21.35-.2c.46-.26.92-.52,1.39-.77l0,0c.7-.39,1.4-.77,2.11-1.14l1-.51.14-.07.5-.26.32-.17c.76-.41,1.54-.79,2.3-1.19l2.71-1.34,1.39-.68.09,0,.25-.12.36-.17c.8-.39,1.61-.76,2.42-1.13l.54-.25c1-.47,2.06-.93,3.1-1.38l.67-.3,2.48-1.06.08,0,2.85-1.16a6.09,6.09,0,0,1,.59-.24l.06,0,1.24-.48,1.3-.5,1.14-.44c1-.36,1.94-.72,2.91-1.06q.33-.14.66-.24c.85-.31,1.71-.61,2.57-.89.5-.18,1-.35,1.51-.51.78-.27,1.57-.53,2.36-.77l1-.32.25-.08.17-.05c1-.29,1.9-.59,2.86-.87.47-.15.95-.29,1.43-.42l1.44-.41c1.1-.31,2.19-.61,3.29-.9l1.57-.41h0l.21-.05,1.73-.44,1.73-.42.51-.12,1.53-.36,1.52-.34.69-.16.21,0,1.41-.3,1.42-.29q.75-.17,1.5-.3c.73-.15,1.47-.29,2.2-.42l1.23-.23L221,360h0l1.78-.29,1.78-.28,1.3-.19,1.31-.18.24,0,.21,0,.25,0,1.81-.23.14,0,.24,0,.25,0c.72-.09,1.43-.18,2.15-.25s1.48-.17,2.22-.24L236,358c.88-.09,1.76-.16,2.64-.24l2.73-.2,2.17-.14.29,0,.46,0,2.53-.13h0l.6,0h.15l2.21-.08,1.23,0,1.6,0,2.36,0h1.11c1.14,0,2.29,0,3.43,0l.93,0c.4,0,.79,0,1.19,0,.84,0,1.68,0,2.52.08h.33c.75,0,1.49.06,2.23.09h.07l2.17.13,1.06.06c.65,0,1.29.08,1.94.14h.19l1.9.15h.09c.93.07,1.85.16,2.77.25l.38,0,1,.1,1.39.15.39,0,2.21.25.23,0,.4.05.92.12,2.2.3,1.51.22.38.06,1.79.28,3,.5c.95.17,1.91.34,2.86.53,1.24.24,2.49.48,3.73.74s2.47.53,3.71.81l3.25.77,1.08.27.41.1,1.75.46c1.42.37,2.84.76,4.25,1.16,1,.28,2,.55,3,.85l.57.17,1.23.37c.82.24,1.63.5,2.44.75l1.08.34,2,.65.6.2,2.38.82.09,0,1.54.54,1.24.46c.81.29,1.61.59,2.42.9,1.09.41,2.17.83,3.25,1.26l0,0,.48.19.49.2,1,.4.29.12.16.07.26.1c.55.21,1.11.45,1.65.69.85.35,1.67.72,2.51,1.09l.25.11.43.19.75.33.74.34,0,0c.13.06.27.11.4.18l1.57.72.31.15c.27.12.54.24.81.38h0l.05,0c.86.41,1.74.82,2.59,1.25l.92.46.23.11c.71.35,1.42.7,2.12,1.07l.38.2.07,0a3.47,3.47,0,0,1,.38.2l.38.2.32.16c.77.39,1.55.81,2.31,1.22l.83.45q1.36.73,2.7,1.5a4.63,4.63,0,0,1,.43.24c1,.56,2,1.14,3,1.73.19.1.37.22.56.33.78.46,1.56.92,2.33,1.4.56.34,1.12.68,1.68,1l.21.13,1.34.84.14.09.09,0,.63.4.43.28c.84.53,1.69,1.08,2.52,1.64q.36.23.72.48c.69.45,1.36.91,2,1.38l.1.07q.78.53,1.56,1.08l0,0c.44.3.89.61,1.33.94s1.05.74,1.57,1.12,1.32,1,2,1.44l.26.2,1.19.89c.9.67,1.8,1.36,2.69,2.06.72.55,1.43,1.11,2.14,1.68l1.17.94,2.05,1.69c.28.22.56.45.83.69l0,0c.61.5,1.2,1,1.79,1.53h0l.16.14.05,0,.07.06.69.59c.39.33.77.68,1.16,1l.32.29c.69.59,1.38,1.21,2.06,1.83q2.48,2.23,4.87,4.57.8.77,1.59,1.56c.65.63,1.29,1.27,1.93,1.92q2.72,2.74,5.33,5.6c.11.12.22.23.32.35.55.6,1.1,1.2,1.64,1.81l.06.06.57.65c.86,1,1.7,1.94,2.54,2.92C327.88,517.09,184.2,517.17,92.71,432.61Z"></path><path fill="#231f20" d="M314.28,357.82l-59.69,76.63L197.72,357a221,221,0,0,1,56.86-7.46A215.54,215.54,0,0,1,314.28,357.82Z"></path><path fill="#231f20" d="M316.35,350.61a223.11,223.11,0,0,0-61-8.55h-.78a228.29,228.29,0,0,0-58.8,7.72l-10.61,2.83.43.59L195,366l59.4,80.89,62.94-80.81,9.66-12.4ZM210.46,361.68a213.27,213.27,0,0,1,44.13-4.63h.85a209.72,209.72,0,0,1,45.89,5.17L254.76,422,210.67,362Z"></path></svg>